' Generated by UML Generator
' Encoded: tLXBRnit4BxhLopGoogn32U-6QqG8msI004IL84R7oak8x5TBJSaPQ_QLB-z7BwvukhH1a7iouByE3CSViCXX_j2ICJbUbMFn9-qQH57gmBNI8XhAJcThoLvYrapet-HucAqf1KfCEMu9gEHbYfUwbxnzwWe9XnLT2skYegjvqf28PWqal2huWEZZGHWeZvFZKuvZjgTqpehDg6P6epbmJ0drd1MS47a6q8NIrcE8uy0_frMShc3ljIk0koS1VHN8Z2dhQIiAMbJAPchGeqggPcYfrc0s8hTaRAALb3v9IYvEqOhaE94A1BBDf9hit9C8gdiaKLc4BDs0ow-dIrHIqR_k2XyOFNc7Mri7Eu8bnGJnSSxAkJFUZrJpxwJDVpx7cQCLoc5gAfkb2dIbQsqj4I-XD5Sy291GQGL10OxJQ1QVCRaO7068lcTOYOYEV7DOlQHKzGiwgDYvcHDp7olUnOn7xMxvn4UjRlB2BzCOkrjjizyLhNFG_FIHSkIV6FzXPMb7Z_AA4u4HZNH_fMjPmNxrg1nV_8PwzO2V8EL-93KPrb6Vs_gBrXpREOhqP3uqDcVz_yZxR_VDh01FhWHZjmk_ocPIITD21GpCd9ku0e4UPlCqCfVVx6f8DlRBdcXmmRLFfMRMbsXivlNCsYDV-3SFNXh3iNbLLtJLjWpTYSKhcn8OsDrJ7XS1qSUuBX4YN2-ITB8g-xaTvZqKPB-6y4okjfQ9YXu5V4CzeVYKFnIDEJUjCkBi-9Yx2FZ3PlOX6vlYhFY7lWCxYyraKbqWd8-LmvRUB0LfcQx7DYvXyCR2atzTeZYI9ggdqoXqjIjqoeMH_CCvkaJzwgf-j0ZoI8AZdr6c5XCaxtDhc-RNzyskxwjfd83wHEEVOj_vAWHdnbVsJ7Vj-D7yB8zYfVjaRnizzt3srtIq5n8Zh0qhzVYsdO3WJ_rxZk0f5lbpfhDxasic6sSGhaxD9KOc69yIdspho8PYEdJlJ7rkVoQitLhw24rMQdfNUrec9tQq_YQSxJH-BGCvx7MDhIOfW2TdWLNKfPuIUlAXInTGVGo346rQMxTyWyDQtPl5fzqBZ-KDpwIItkX8hYPL4012jKzWhNvLYAauOgZUxiJhE8FTsQ2b9qZgPeohpbuZtsA7btGlztBDIT4dFHF1OeHJNWN_zFQn1txhe9IPHoQsPUH9UlJ3gctAI90fil_Hxaj1twm77gCGVuDikzZ2LBHay_ZgtKjZr3NOZdzRxFDJZ_c7a9-AqGouqYPk4I-h54jIdMxl9__eOfLDJXdh2QeWJrg_xjE9b-dwLtdHfvC9fOz2voVJzsS_dTXHjsFCM_0Gv49__SgOyAF1HCUwda1Vou6d82Xr0T0OXVWpPsR7l2mVDsDrDoJCAFfXeAoGoBzyBh9M0Y3mKR08Yj3z6iywFPfjmKX84OW0gn8MlcSdt_r8-Qopqng1e3iH3BCek-UN9m0xuab4OOZD7R18KxZXNeoh5Vrlm
' URL: http://www.plantuml.com/plantuml/uml/tLXBRnit4BxhLopGoogn32U-6QqG8msI004IL84R7oak8x5TBJSaPQ_QLB-z7BwvukhH1a7iouByE3CSViCXX_j2ICJbUbMFn9-qQH57gmBNI8XhAJcThoLvYrapet-HucAqf1KfCEMu9gEHbYfUwbxnzwWe9XnLT2skYegjvqf28PWqal2huWEZZGHWeZvFZKuvZjgTqpehDg6P6epbmJ0drd1MS47a6q8NIrcE8uy0_frMShc3ljIk0koS1VHN8Z2dhQIiAMbJAPchGeqggPcYfrc0s8hTaRAALb3v9IYvEqOhaE94A1BBDf9hit9C8gdiaKLc4BDs0ow-dIrHIqR_k2XyOFNc7Mri7Eu8bnGJnSSxAkJFUZrJpxwJDVpx7cQCLoc5gAfkb2dIbQsqj4I-XD5Sy291GQGL10OxJQ1QVCRaO7068lcTOYOYEV7DOlQHKzGiwgDYvcHDp7olUnOn7xMxvn4UjRlB2BzCOkrjjizyLhNFG_FIHSkIV6FzXPMb7Z_AA4u4HZNH_fMjPmNxrg1nV_8PwzO2V8EL-93KPrb6Vs_gBrXpREOhqP3uqDcVz_yZxR_VDh01FhWHZjmk_ocPIITD21GpCd9ku0e4UPlCqCfVVx6f8DlRBdcXmmRLFfMRMbsXivlNCsYDV-3SFNXh3iNbLLtJLjWpTYSKhcn8OsDrJ7XS1qSUuBX4YN2-ITB8g-xaTvZqKPB-6y4okjfQ9YXu5V4CzeVYKFnIDEJUjCkBi-9Yx2FZ3PlOX6vlYhFY7lWCxYyraKbqWd8-LmvRUB0LfcQx7DYvXyCR2atzTeZYI9ggdqoXqjIjqoeMH_CCvkaJzwgf-j0ZoI8AZdr6c5XCaxtDhc-RNzyskxwjfd83wHEEVOj_vAWHdnbVsJ7Vj-D7yB8zYfVjaRnizzt3srtIq5n8Zh0qhzVYsdO3WJ_rxZk0f5lbpfhDxasic6sSGhaxD9KOc69yIdspho8PYEdJlJ7rkVoQitLhw24rMQdfNUrec9tQq_YQSxJH-BGCvx7MDhIOfW2TdWLNKfPuIUlAXInTGVGo346rQMxTyWyDQtPl5fzqBZ-KDpwIItkX8hYPL4012jKzWhNvLYAauOgZUxiJhE8FTsQ2b9qZgPeohpbuZtsA7btGlztBDIT4dFHF1OeHJNWN_zFQn1txhe9IPHoQsPUH9UlJ3gctAI90fil_Hxaj1twm77gCGVuDikzZ2LBHay_ZgtKjZr3NOZdzRxFDJZ_c7a9-AqGouqYPk4I-h54jIdMxl9__eOfLDJXdh2QeWJrg_xjE9b-dwLtdHfvC9fOz2voVJzsS_dTXHjsFCM_0Gv49__SgOyAF1HCUwda1Vou6d82Xr0T0OXVWpPsR7l2mVDsDrDoJCAFfXeAoGoBzyBh9M0Y3mKR08Yj3z6iywFPfjmKX84OW0gn8MlcSdt_r8-Qopqng1e3iH3BCek-UN9m0xuab4OOZD7R18KxZXNeoh5Vrlm
' Generated on: 2026-05-07T10:39:41.986042782

@startuml
skinparam classAttributeIconSize 0
hide circle

class Circle {
  -radius: double
  -center: Point
  --
  +Circle()
  +Circle(x: double, y: double, radius: double)
  +Circle(centre: Point, radius: double)
  +getHeight(): double
  +getWidth(): double
  +getCenter(): Point
  +getDescription(indent: int): String
  +move(dx: double, dy: double): void
  +resize(px: double, py: double): void
  +rotate(deg: double): void
  +copy(): IShape
}

class PolyLine {
  -vertices: List<Point>
  --
  +PolyLine()
  +PolyLine(coords: double)
  +addVertex(pt: Point): void
  +addVertex(x: double, y: double): void
  +setVertex(index: int, pt: Point): void
  +getWidth(): double
  +getHeight(): double
  +getCenter(): Point
  +getDescription(indent: int): String
  +move(dx: double, dy: double): void
  +resize(sx: double, sy: double): void
  +rotate(deg: double): void
  +copy(): IShape
}

class Triangle {
  -vertices: List<Point>
  --
  +Triangle()
  +Triangle(x1: double, y1: double, x2: double, y2: double, x3: double, y3: double)
  +Triangle(p1: Point, p2: Point, p3: Point)
  +getVertices(): List<Point>
  +getWidth(): double
  +getHeight(): double
  +getCenter(): Point
  +getDescription(indent: int): String
  +move(dx: double, dy: double): void
  +resize(sx: double, sy: double): void
  +rotate(deg: double): void
  -scalePoint(p: Point, c: Point, sx: double, sy: double): Point
  -rotatePoint(point: Point, center: Point, rad: double): Point
  +copy(): IShape
}

class Polygon {
  -vertices: List<Point>
  --
  +Polygon()
  +Polygon(coords: double)
  +addVertex(p: Point): void
  +addVertex(x: double, y: double): void
  +getWidth(): double
  +getHeight(): double
  +getCenter(): Point
  +getDescription(indent: int): String
  +resize(dx: double, dy: double): void
  +move(dx: double, dy: double): void
  +rotate(deg: double): void
  +copy(): IShape
}

class Text {
  -text: String
  -center: Point
  --
  +Text()
  +Text(x: double, y: double, text: String)
  +Text(center: Point, text: String)
  +Text(x: double, y: double, text: String, style: SVGStyle)
  +getWidth(): double
  +getHeight(): double
  +getCenter(): Point
  +getDescription(indent: int): String
  +move(dx: double, dy: double): void
  +resize(px: double, py: double): void
  +copy(): IShape
}

class Ellipse {
  -center: Point
  -radius: Point
  --
  +Ellipse()
  +Ellipse(cx: double, cy: double, rx: double, ry: double)
  +Ellipse(center: Point, radius: Point)
  +getWidth(): double
  +getHeight(): double
  +getCenter(): Point
  +getDescription(indent: int): String
  +move(dx: double, dy: double): void
  +resize(px: double, py: double): void
  +copy(): IShape
}

class Rectangle {
  -position: Point
  -size: Point
  -radius: Point = new Point(0, 0)
  --
  +Rectangle()
  +Rectangle(position: Point, width: double, height: double)
  +Rectangle(x: double, y: double, width: double, height: double)
  +getHeight(): double
  +getWidth(): double
  +getCenter(): Point
  +getDescription(indent: int): String
  +move(dx: double, dy: double): void
  +resize(px: double, py: double): void
  +radius(rx: double, ry: double): void
  +copy(): IShape
}

class Line {
  -start: Point
  -end: Point
  --
  +Line()
  +Line(x1: double, y1: double, x2: double, y2: double)
  +getStart(): Point
  +getEnd(): Point
  +getWidth(): double
  +getHeight(): double
  +getCenter(): Point
  +getDescription(indent: int): String
  +move(dx: double, dy: double): void
  +resize(px: double, py: double): void
  +copy(): IShape
}

interface IShape {
  ~getWidth(): double
  ~getHeight(): double
  ~getCenter(): Point
  ~getStyle(): SVGStyle
  ~getTransform(): SVGTransform
  ~getDescription(indent: int): String
  ~move(dx: double, dy: double): void
  ~resize(px: double, py: double): void
  ~rotate(deg: double): void
  ~copy(): IShape
}

abstract class AbstractShape {
  #style: SVGStyle
  #transform: SVGTransform
  --
  +AbstractShape()
  +AbstractShape(style: SVGStyle)
  +AbstractShape(transform: SVGTransform)
  +getDescription(indent: int): String
  +rotate(deg: double): void
  +getStyle(): SVGStyle
  +getTransform(): SVGTransform
}

class Group {
  #elements: List<IShape> = new ArrayList<>()
  --
  +Group()
  +Group(shapes: List<IShape>)
  +add(child: IShape): void
  +get(index: int): IShape
  +getElements(): List<IShape>
  +getCenter(): Point
  +getHeight(): double
  +getWidth(): double
  +getDescription(indent: int): String
  +move(dx: double, dy: double): void
  +resize(px: double, py: double): void
  +rotate(deg: double): void
  +copy(): IShape
}

class Path {
  -path: SVGPath
  --
  +Path()
  +Path(path: SVGPath)
  +draw(): SVGPath
  +getWidth(): double
  +getHeight(): double
  +getCenter(): Point
  +getDescription(indent: int): String
  +move(dx: double, dy: double): void
  +moveCenter(center: Point): void
  +resize(scaleX: double, scaleY: double): void
  +rotate(degrees: double): void
  +copy(): IShape
}

class Point {
  -x: double
  -y: double
  --
  +Point()
  +Point(x: double, y: double)
  +getX(): double
  +getY(): double
  +setX(x: double): void
  +setY(y: double): void
  +set(x: double, y: double): void
  +add(dx: double, dy: double): Point
  +add(p: Point): Point
  +mult(dx: double, dy: double): Point
  +mult(p: Point): Point
  +getWidth(): double
  +getHeight(): double
  +getCenter(): Point
  +getStyle(): SVGStyle
  +getTransform(): SVGTransform
  +getDescription(indent: int): String
  +move(dx: double, dy: double): void
  +resize(px: double, py: double): void
  +rotate(deg: double): void
  +copy(): IShape
  +toString(): String
  +equals(e: Object): boolean
}

Circle --|> AbstractShape
Circle *-- Point
Circle ..> IShape
PolyLine --|> AbstractShape
PolyLine o-- Point
PolyLine ..> IShape
Triangle --|> AbstractShape
Triangle o-- Point
Triangle ..> IShape
Polygon --|> AbstractShape
Polygon o-- Point
Polygon ..> IShape
Text --|> AbstractShape
Text *-- Point
Text ..> IShape
Ellipse --|> AbstractShape
Ellipse *-- Point
Ellipse ..> IShape
Rectangle --|> AbstractShape
Rectangle *-- Point
Rectangle ..> IShape
Line --|> AbstractShape
Line *-- Point
Line ..> IShape
IShape ..> Point
IShape ..> IShape
AbstractShape ..|> IShape
Group --|> AbstractShape
Group o-- IShape
Group ..> Point
Path --|> AbstractShape
Path ..> Point
Path ..> IShape
Point ..|> IShape
Point ..> Point
@enduml