' Generated by UML Generator
' Encoded: tLfBR-Cs4BxxLn38HK7iO5kW5mCjrdNIn82x22fZTtCgQ8bh4qjBWaGvzZx-UqazIGxrMDlnDhaaoF3ZS3ZpSSGPvct2SSpJ3HiadsaGuHXlaCTmaamuZ-aovMJcXO5Bln3qPh2cFa4UZJr61eCCXTn8oE8RpB5B-7jAdj3N0KAZ6FiqJSR83zEb00j95DA0_mF4gvZwSx8bJ4W5G8fygKmiM0b6uiSLMCYvj8iz4d0IZz63N728T4iEcJD45jjFfcY831TacXF2fLf7-cACYXKknsWRKb-w1Fl-50TRd3WuM37YSXBL2hEGJgIyihQQUUM5qTuHVy_SDOva2AvMOYsIU36DE0q3XmQ-s4HkoXYvWWN1ge3T4xfQSpcx2g0KVw0-NolIxoKvvZGWW1f9X3sXKYN11kzorJq8OsU7iLBE3LDe1CSmP8Y06QVHqioVhYWBtpwm4FZtR56aSgUVi4VGp0nZk-qL0wOXIpT10aYmn76sdXhPliJ80WuLvp6toBi2PjhIH8IEQ9trPBaUvjoITv_bSC75YjmBvOSTiLCeUhcdB8_edpZkTKgQZuIk8G-H8JEy-hAOZvS9Zx77y_i9cXH_cbwxq3PPUSS2rztHQwV2icasIPfMBd2r2RV4yNUr6_szvSiRaqGSBITIS94L5tBCXJwoCWShiZnGqkFAbUrRX-QiC6JTDoPBG5gZroVsa3ITD8k9S8pBg4SSUCSP8XBuvgtd0VDrxRQ9K73gb9buc96_yKwLVQACJLYqnXrtMiEUF3YcyB2KUhIMrdpg5fjspDqhqHAmlqe_EBZoXeveJSnFbA_pwLx8Gc7yLFuQ8arP9ll_fF7IxtTnc4OroPePvKBwDJ6DO-ypySTe6OQCu03Gg5fJyMWc6wAkyDjCwKkAhE3GB1kYTHZJBs70CPkJbJYNrL35e7oAOqwjmtyXtBmGgP3TCh8HvYUMK00CZBw45AEMmJob5EDE52PK4gBy8eorUw-qd2QJ7Krk0opc-r9L7GkvK3POAAi9PwPjdHiNxOdxYA2QrMThKFgw--VxqgXAT6zARYqePyJXykSOpV6IC4lIMSbfYZiLY2YkgxmauBPFaO3aFdHOuKfj7Tiz_HaoWdaxFqS2Q3_PPpR6cerU2StD_fh1dsCwR4P3xLmfvdcM_74EdD4Em_a_Iaxxv-mbyLVfn_H9WBQAbmO1YIr9qUm37H7B7eNmAyihHMFWq9Ye3OTNxdUzXNAyvwKo2Qcz3XeMN6u8-3oJml3OwzVtcAL4hnv8D0tJeiofAjV5FY9ZpIQt56UOTVZqKOveLSTEIh8BZr8jPTX7WDrRiHb_r5ND0XMwe92PxB1LijhcPNcYRbtytR5nWG3R7YAuwHptQE3WXYLFHsdaowwE-eOJHMoVBUfiLODR7bAUwmu9zF-q2-GvBNdDjyUMPgbHC7qL9JYdtdSqlxsxVNVpx_tjxEv-KTgCVaU_lB71t8V9TFRkJi7zPiLzcDqixXNKhn9rOGHLYXeTBmUnsAThPh1Ssft5Bk1n5eRmECq6uRaMWq7AM3dpiMdcldKcE84z6jD7iBxHVKC4dLV8EbntUGxpoeRGH3NIqLEsNhvFLDEThcIkptLB9ZWoifQkamHzhEBgC2sF0rMFNQeUErMTgCrrMA8uSROQrShoLv89ptghkpAA5VC5CEU1ObEL2S2dyjHDdGCwEgTwlu7_BpCQVVl3zfWrCFzxeX5eUMHln5eUZXknnfDa8yxs4dTzBS0QFOmtgsPjnYDD9x3-dW5eDMG1Nr_R3Uob3c21DcldhqMZ5G-rMjf1RKejSA3JMgAtABNYWLPGOBPe15YfpQYxu1MuHI440_liDwAQjWfr6f26mhSYQQGRzXy
' URL: http://www.plantuml.com/plantuml/uml/tLfBR-Cs4BxxLn38HK7iO5kW5mCjrdNIn82x22fZTtCgQ8bh4qjBWaGvzZx-UqazIGxrMDlnDhaaoF3ZS3ZpSSGPvct2SSpJ3HiadsaGuHXlaCTmaamuZ-aovMJcXO5Bln3qPh2cFa4UZJr61eCCXTn8oE8RpB5B-7jAdj3N0KAZ6FiqJSR83zEb00j95DA0_mF4gvZwSx8bJ4W5G8fygKmiM0b6uiSLMCYvj8iz4d0IZz63N728T4iEcJD45jjFfcY831TacXF2fLf7-cACYXKknsWRKb-w1Fl-50TRd3WuM37YSXBL2hEGJgIyihQQUUM5qTuHVy_SDOva2AvMOYsIU36DE0q3XmQ-s4HkoXYvWWN1ge3T4xfQSpcx2g0KVw0-NolIxoKvvZGWW1f9X3sXKYN11kzorJq8OsU7iLBE3LDe1CSmP8Y06QVHqioVhYWBtpwm4FZtR56aSgUVi4VGp0nZk-qL0wOXIpT10aYmn76sdXhPliJ80WuLvp6toBi2PjhIH8IEQ9trPBaUvjoITv_bSC75YjmBvOSTiLCeUhcdB8_edpZkTKgQZuIk8G-H8JEy-hAOZvS9Zx77y_i9cXH_cbwxq3PPUSS2rztHQwV2icasIPfMBd2r2RV4yNUr6_szvSiRaqGSBITIS94L5tBCXJwoCWShiZnGqkFAbUrRX-QiC6JTDoPBG5gZroVsa3ITD8k9S8pBg4SSUCSP8XBuvgtd0VDrxRQ9K73gb9buc96_yKwLVQACJLYqnXrtMiEUF3YcyB2KUhIMrdpg5fjspDqhqHAmlqe_EBZoXeveJSnFbA_pwLx8Gc7yLFuQ8arP9ll_fF7IxtTnc4OroPePvKBwDJ6DO-ypySTe6OQCu03Gg5fJyMWc6wAkyDjCwKkAhE3GB1kYTHZJBs70CPkJbJYNrL35e7oAOqwjmtyXtBmGgP3TCh8HvYUMK00CZBw45AEMmJob5EDE52PK4gBy8eorUw-qd2QJ7Krk0opc-r9L7GkvK3POAAi9PwPjdHiNxOdxYA2QrMThKFgw--VxqgXAT6zARYqePyJXykSOpV6IC4lIMSbfYZiLY2YkgxmauBPFaO3aFdHOuKfj7Tiz_HaoWdaxFqS2Q3_PPpR6cerU2StD_fh1dsCwR4P3xLmfvdcM_74EdD4Em_a_Iaxxv-mbyLVfn_H9WBQAbmO1YIr9qUm37H7B7eNmAyihHMFWq9Ye3OTNxdUzXNAyvwKo2Qcz3XeMN6u8-3oJml3OwzVtcAL4hnv8D0tJeiofAjV5FY9ZpIQt56UOTVZqKOveLSTEIh8BZr8jPTX7WDrRiHb_r5ND0XMwe92PxB1LijhcPNcYRbtytR5nWG3R7YAuwHptQE3WXYLFHsdaowwE-eOJHMoVBUfiLODR7bAUwmu9zF-q2-GvBNdDjyUMPgbHC7qL9JYdtdSqlxsxVNVpx_tjxEv-KTgCVaU_lB71t8V9TFRkJi7zPiLzcDqixXNKhn9rOGHLYXeTBmUnsAThPh1Ssft5Bk1n5eRmECq6uRaMWq7AM3dpiMdcldKcE84z6jD7iBxHVKC4dLV8EbntUGxpoeRGH3NIqLEsNhvFLDEThcIkptLB9ZWoifQkamHzhEBgC2sF0rMFNQeUErMTgCrrMA8uSROQrShoLv89ptghkpAA5VC5CEU1ObEL2S2dyjHDdGCwEgTwlu7_BpCQVVl3zfWrCFzxeX5eUMHln5eUZXknnfDa8yxs4dTzBS0QFOmtgsPjnYDD9x3-dW5eDMG1Nr_R3Uob3c21DcldhqMZ5G-rMjf1RKejSA3JMgAtABNYWLPGOBPe15YfpQYxu1MuHI440_liDwAQjWfr6f26mhSYQQGRzXy
' Generated on: 2026-05-07T10:39:50.992709815

@startuml
skinparam classAttributeIconSize 0
hide circle

class SpiderDataSetView {
  -radius: double
  -pointRadius: double
  -gridLevels: int
  -dataSize: int
  --
  +SpiderDataSetView()
  +SpiderDataSetView(center: Point, radius: double)
  +SpiderDataSetView(center: Point, radius: double, pointRadius: double)
  +SpiderDataSetView(center: Point, radius: double, pointRadius: double, gridLevels: int)
  +setData(data: DataSet): void
  -addCanvas(angleStep: double, startAngle: double): void
  +copy(): IShape
  +getDescription(indent: int): String
  +getHeight(): double
  +getWidth(): double
}

class LineDataSetView {
  -spacing: double
  -maxHeight: double
  -pointRadius: double
  -dataSize: int
  --
  +LineDataSetView()
  +LineDataSetView(center: Point, spacing: double, maxHeight: double)
  +LineDataSetView(center: Point, spacing: double, maxHeight: double, pointRadius: double)
  +setData(data: DataSet): void
  -getPlotWidth(): double
  +copy(): IShape
  +getDescription(indent: int): String
  +getHeight(): double
  +getWidth(): double
}

interface IDataSetView {
  +setData(data: DataSet): void
}

class ColumnsDataSetView {
  -barWidth: double
  -spacing: double
  -maxHeight: double
  --
  +ColumnsDataSetView()
  +ColumnsDataSetView(center: Point, spacing: double, barWidth: double, maxHeight: double)
  +setData(data: DataSet): void
  +copy(): IShape
  +getDescription(indent: int): String
  +getHeight(): double
  +getWidth(): double
}

class ScatterDataSetView {
  -spacing: double
  -maxHeight: double
  -pointRadius: double
  -dataSize: int
  --
  +ScatterDataSetView()
  +ScatterDataSetView(center: Point, spacing: double, maxHeight: double)
  +ScatterDataSetView(center: Point, spacing: double, maxHeight: double, pointRadius: double)
  +setData(data: DataSet): void
  -getPlotWidth(): double
  +copy(): IShape
  +getDescription(indent: int): String
  +getHeight(): double
  +getWidth(): double
}

class BarDataSetView {
  -barWidth: double
  -maxHeight: double
  --
  +BarDataSetView()
  +BarDataSetView(center: Point, barWidth: double, maxHeight: double)
  +setData(data: DataSet): void
  +copy(): IShape
  +getDescription(indent: int): String
  +getHeight(): double
  +getWidth(): double
}

abstract class AbstractDataSetView {
  #center: Point
  --
  +AbstractDataSetView(center: Point)
  +setData(data: DataSet): void
  +getCenter(): Point
  +move(dx: double, dy: double): void
  +resize(px: double, py: double): void
  +rotate(deg: double): void
}

class PieDataSetView {
  -radius: double
  --
  +PieDataSetView()
  +PieDataSetView(center: Point, radius: double)
  +getWidth(): double
  +getHeight(): double
  +getDescription(indent: int): String
  +copy(): IShape
  +setData(data: DataSet): void
  +createSlice(startAngle: double, endAngle: double): Path
}

class AreaDataSetView {
  -spacing: double
  -maxHeight: double
  -pointRadius: double
  -scaleMax: double
  -fillAlpha: int
  -dataSize: int
  --
  +AreaDataSetView()
  +AreaDataSetView(center: Point, spacing: double, maxHeight: double)
  +AreaDataSetView(center: Point, spacing: double, maxHeight: double, pointRadius: double)
  +setScaleMax(scaleMax: double): void
  +setFillAlpha(alpha: int): void
  +setData(data: DataSet): void
  -withAlpha(color: Color, alpha: int): Color
  -getPlotWidth(): double
  +copy(): IShape
  +getDescription(indent: int): String
  +getHeight(): double
  +getWidth(): double
}

class AreaDataGroupView {
  -maxHeight: double
  -pointSpacing: double
  -pointRadius: double
  -stacked: boolean
  --
  +AreaDataGroupView(data: DataGroup, center: Point, spacing: double, pointSpacing: double, maxHeight: double, pointRadius: double, stacked: boolean, horizontalLegend: boolean)
  +setStacked(stacked: boolean): void
  #getTotalElementsHeight(): double
  #getTotalElementsWidth(): double
  #getElementWidth(): double
  #createElement(position: Point): IDataSetView
  +isAxisEnabled(): boolean
  #getAxisElement(): IShape
}

class PieDataGroupView {
  #radius: double
  --
  +PieDataGroupView(data: DataGroup, center: Point, spacing: double, radius: double, horizontalLegend: boolean)
  #getTotalElementsHeight(): double
  #getElementWidth(): double
  #createElement(position: Point): IDataSetView
  +isAxisEnabled(): boolean
  #getAxisElement(): IShape
}

interface IDataGroupView {
  +setTitle(title: Label): void
  +setData(group: DataGroup): void
  +addData(dataset: DataSet): void
  +addLegend(legend: Label): void
}

class ScatterDataGroupView {
  -maxHeight: double
  -pointSpacing: double
  -pointRadius: double
  --
  +ScatterDataGroupView(data: DataGroup, center: Point, spacing: double, pointSpacing: double, maxHeight: double, horizontalLegend: boolean)
  +ScatterDataGroupView(data: DataGroup, center: Point, spacing: double, pointSpacing: double, maxHeight: double, pointRadius: double, horizontalLegend: boolean)
  #getTotalElementsHeight(): double
  #getElementWidth(): double
  #createElement(position: Point): IDataSetView
  +isAxisEnabled(): boolean
  #getAxisElement(): IShape
}

class SpiderDataGroupView {
  -radius: double
  -pointRadius: double
  -gridLevels: int
  --
  +SpiderDataGroupView(data: DataGroup, center: Point, spacing: double, radius: double, horizontalLegend: boolean)
  +SpiderDataGroupView(data: DataGroup, center: Point, spacing: double, radius: double, pointRadius: double, horizontalLegend: boolean)
  +SpiderDataGroupView(data: DataGroup, center: Point, spacing: double, radius: double, pointRadius: double, gridLevels: int, horizontalLegend: boolean)
  #getTotalElementsWidth(): double
  #getTotalElementsHeight(): double
  #getElementWidth(): double
  #createElement(position: Point): IDataSetView
  +isAxisEnabled(): boolean
  #getAxisElement(): IShape
}

class ColumnsDataGroupView {
  -maxHeight: double
  -barWidth: double
  -innerSpacing: double
  --
  +ColumnsDataGroupView(data: DataGroup, center: Point, spacing: double, barWidth: double, maxHeight: double, horizontalLegend: boolean)
  #getTotalElementsHeight(): double
  #getElementWidth(): double
  #createElement(position: Point): IDataSetView
  +isAxisEnabled(): boolean
  #getAxisElement(): IShape
}

class BarDataGroupView {
  -maxHeight: double
  -barWidth: double
  --
  +BarDataGroupView(data: DataGroup, center: Point, spacing: double, barWidth: double, maxHeight: double, horizontalLegend: boolean)
  #getTotalElementsHeight(): double
  #getElementWidth(): double
  #createElement(position: Point): BarDataSetView
  +isAxisEnabled(): boolean
  #getAxisElement(): IShape
}

class DataAxisView {
  -center: Point
  -totalWidth: double
  -totalHeight: double
  -spacing: double
  -maxValue: double
  -stepCount: int
  -scaleType: DataAxisViewScaleType
  -showXAxis: boolean
  -xAxisLabel: String
  -showYAxis: boolean
  -yAxisLabel: String
  --
  +DataAxisView(center: Point, totalWidth: double, totalHeight: double, spacing: double, maxValue: double, stepCount: int, scaleType: DataAxisViewScaleType, showXAxis: boolean, xAxisLabel: String, showYAxis: boolean, yAxisLabel: String)
  -update(): void
  -applyScale(value: double): double
}

class LineDataGroupView {
  -maxHeight: double
  -pointSpacing: double
  -pointRadius: double
  --
  +LineDataGroupView(data: DataGroup, center: Point, spacing: double, pointSpacing: double, maxHeight: double, horizontalLegend: boolean)
  +LineDataGroupView(data: DataGroup, center: Point, spacing: double, pointSpacing: double, maxHeight: double, pointRadius: double, horizontalLegend: boolean)
  #getTotalElementsHeight(): double
  #getElementWidth(): double
  #createElement(position: Point): IDataSetView
  +isAxisEnabled(): boolean
  #getAxisElement(): IShape
}

abstract class AbstractDataGroupView {
  +{static} LEGEND_HEIGHT: double = 10
  +{static} LEGEND_SPACING: double = 50
  +{static} LEGEND_WIDTH: double = 20
  #data: DataGroup
  #horizontalLegend: boolean
  #axisStepCount: int
  #axisScaleType: DataAxisViewScaleType
  #showXAxis: boolean = true
  #xAxisLabel: String = null
  #showYAxis: boolean = true
  #yAxisLabel: String = null
  #spacing: double
  #center: Point
  --
  +AbstractDataGroupView(data: DataGroup, center: Point, spacing: double, horizontalLegend: boolean, axisStepCount: int, axisScaleType: DataAxisViewScaleType)
  +AbstractDataGroupView(data: DataGroup, center: Point, spacing: double, horizontalLegend: boolean)
  +setAxisStepCount(stepCount: int): void
  +setAxisScaleType(scaleType: DataAxisViewScaleType): void
  +setShowXAxis(show: boolean): void
  +setXAxisLabel(label: String): void
  +setShowYAxis(show: boolean): void
  +setYAxisLabel(label: String): void
  #getTotalElementsHeight(): double
  #getTotalElementsWidth(): double
  +isAxisEnabled(): boolean
  #getAxisElement(): IShape
  #getElementWidth(): double
  #createElement(position: Point): IDataSetView
  -getElementCenterAt(index: int): Point
  -getLegendElement(): Group
  #update(): void
  +setTitle(title: Label): void
  +setData(group: DataGroup): void
  +addData(data: DataSet): void
  +addLegend(legend: Label): void
  +resize(px: double, py: double): void
  +rotate(deg: double): void
}

SpiderDataSetView --|> AbstractDataSetView
LineDataSetView --|> AbstractDataSetView
ColumnsDataSetView --|> AbstractDataSetView
ScatterDataSetView --|> AbstractDataSetView
BarDataSetView --|> AbstractDataSetView
AbstractDataSetView ..|> IDataSetView
PieDataSetView --|> AbstractDataSetView
AreaDataSetView --|> AbstractDataSetView
AreaDataGroupView --|> AbstractDataGroupView
AreaDataGroupView ..> IDataSetView
PieDataGroupView --|> AbstractDataGroupView
PieDataGroupView ..> IDataSetView
ScatterDataGroupView --|> AbstractDataGroupView
ScatterDataGroupView ..> IDataSetView
SpiderDataGroupView --|> AbstractDataGroupView
SpiderDataGroupView ..> IDataSetView
ColumnsDataGroupView --|> AbstractDataGroupView
ColumnsDataGroupView ..> IDataSetView
BarDataGroupView --|> AbstractDataGroupView
BarDataGroupView ..> BarDataSetView
LineDataGroupView --|> AbstractDataGroupView
LineDataGroupView ..> IDataSetView
AbstractDataGroupView ..|> IDataGroupView
AbstractDataGroupView ..> IDataSetView
@enduml